<?xml version="1.0" standalone="no"?>
<!DOCTYPE svg PUBLIC "-//W3C//DTD SVG 20010904//EN"
 "http://www.w3.org/TR/2001/REC-SVG-20010904/DTD/svg10.dtd">
<svg version="1.0" xmlns="http://www.w3.org/2000/svg"
 width="420.000000pt" height="420.000000pt" viewBox="0 0 420.000000 420.000000"
 preserveAspectRatio="xMidYMid meet">
<metadata>
Created by potrace 1.14, written by Peter Selinger 2001-2017
</metadata>
<g transform="translate(0.000000,420.000000) scale(0.100000,-0.100000)"
fill="#000000" stroke="none">
<path d="M2092 3877 c-39 -12 -80 -62 -86 -103 -2 -16 -7 -51 -10 -79 -4 -27
-9 -70 -12 -95 l-6 -45 -17 36 c-61 125 -111 188 -164 208 -30 11 -77 7 -108
-9 -28 -16 -60 -66 -63 -103 -3 -28 33 -173 59 -242 9 -22 7 -21 -70 49 -60
54 -127 90 -169 91 -46 2 -70 -7 -106 -41 l-25 -23 -95 30 c-52 17 -103 32
-112 34 -9 2 -26 9 -37 15 -12 6 -21 9 -21 6 0 -2 -21 2 -47 10 -27 8 -77 17
-112 19 -151 11 -208 -95 -133 -246 111 -224 629 -748 819 -830 l31 -13 -46
-26 c-82 -46 -254 -144 -281 -160 -124 -72 -165 -120 -164 -192 0 -80 64 -140
143 -135 27 2 35 -2 38 -18 3 -11 17 -35 33 -55 l29 -34 -43 -46 c-24 -25 -99
-106 -167 -180 -68 -74 -283 -292 -477 -485 -300 -297 -353 -355 -355 -380 -2
-45 2 -79 12 -88 4 -5 1 -23 -8 -40 -35 -70 2 -167 68 -182 16 -4 29 -10 29
-13 -5 -30 9 -53 65 -107 40 -39 76 -64 95 -68 29 -6 39 -5 79 9 9 4 31 8 48
9 77 6 66 -8 429 530 115 171 271 402 348 515 76 113 162 240 190 282 45 67
53 74 58 55 3 -12 2 -35 -3 -52 -4 -16 -7 -104 -5 -195 3 -214 6 -220 165
-347 37 -30 98 -112 132 -177 23 -45 61 -68 113 -68 61 -1 101 30 155 119 39
65 116 153 133 153 15 0 71 54 94 90 35 55 40 98 38 304 -2 105 1 186 5 180
13 -15 103 -146 317 -464 109 -162 202 -296 207 -298 4 -2 8 -8 8 -13 0 -5 24
-43 53 -85 28 -41 59 -86 67 -99 8 -13 47 -70 85 -127 39 -57 99 -144 133
-194 86 -127 99 -133 232 -120 19 2 41 4 49 5 22 2 141 129 141 150 0 12 10
21 28 26 31 7 81 58 83 83 4 38 -2 77 -15 103 -9 17 -10 31 -4 37 13 13 16 72
5 105 -5 16 -168 186 -381 400 -205 205 -412 416 -462 471 -49 54 -110 121
-136 149 l-47 51 24 32 c14 18 29 44 34 57 7 19 16 24 37 21 66 -7 128 47 139
120 10 65 -36 137 -115 178 -14 7 -29 17 -35 21 -16 12 -115 70 -229 133
l-105 58 64 36 c140 76 410 330 641 599 54 64 123 167 148 222 35 78 40 117
19 158 -29 55 -65 76 -131 75 -78 -1 -112 -8 -296 -65 l-160 -49 -33 32 c-30
29 -41 33 -87 33 -59 -1 -81 -13 -187 -106 l-65 -57 32 96 c48 145 39 222 -31
268 -30 20 -80 25 -116 12 -45 -16 -68 -46 -140 -185 -18 -35 -33 -62 -34 -60
-2 1 -5 40 -9 87 -10 149 -19 176 -68 213 -40 31 -81 38 -126 24z"/>
</g>
</svg>
